<svg width="4028" height="922" viewBox="0 0 4028 922" fill="none" xmlns="http://www.w3.org/2000/svg">
<path d="M291.683 867H350.937C375.149 867 394.811 847.336 394.811 823.114V332.885C394.811 308.665 375.149 289 350.937 289H291.683C267.47 289 247.811 308.665 247.811 332.885V823.114C247.811 847.336 267.47 867 291.683 867Z" fill="white"/>
<path d="M157.283 867H157.339C173.637 867 186.811 853.89 186.811 837.669V318.33C186.811 302.11 173.637 289 157.339 289H157.283C140.984 289 127.811 302.11 127.811 318.33V837.669C127.811 853.89 140.984 867 157.283 867Z" fill="white"/>
<path d="M53.8108 867C60.9636 867 66.8105 861.334 66.8105 854.28V301.721C66.8105 294.722 60.9636 289 53.8108 289C46.6576 289 40.8105 294.722 40.8105 301.721V854.28C40.8105 861.277 46.6576 867 53.8108 867Z" fill="white"/>
<path d="M634.35 289H528.271C488.823 289 456.811 321.052 456.811 360.549V795.451C456.811 834.946 488.823 867 528.271 867H634.35C673.798 867 705.811 834.946 705.811 795.451V360.549C705.811 321.052 673.798 289 634.35 289Z" fill="white"/>
<path d="M1193.01 235.507C1193.01 191.703 1217.76 169.245 1260.48 169.245C1288.57 169.245 1308.82 171.468 1334.69 175.971V51.229C1304.31 44.5027 1266.1 40 1231.28 40C1116.63 40 1044.65 102.927 1044.65 225.39V242.234C1044.65 272.585 1028.9 289.429 998.532 289.429H955.811V426.512H1044.65V868H1193.06V426.512H1344.81V289.429H1193.06V235.507H1193.01Z" fill="white"/>
<path d="M1522.23 47C1571.69 47 1610.81 86.1059 1610.81 133C1610.81 179.894 1571.69 219 1522.23 219C1472.77 219 1434.81 181.007 1434.81 133C1434.81 84.9935 1472.77 47 1522.23 47Z" fill="white"/>
<path d="M1596.81 289H1448.81V868H1596.81V289Z" fill="white"/>
<path d="M2018.78 277C1935.25 277 1877.9 316.696 1849.09 361.285V289.342H1701.81V868H1849.09V569.386C1849.42 481.098 1898.76 419.661 1971.62 419.661C2044.48 419.661 2088.53 464.587 2088.53 563.491V868H2235.81V530.913C2235.81 347.775 2138.03 277 2018.84 277H2018.78Z" fill="white"/>
<path d="M2534.71 658.659V426.032H2686.51V288.89H2534.71V127H2403.16L2396.65 246.457C2396.09 269.926 2380.23 288.89 2355.53 288.89H2291.81V426.032H2386.3V671.063C2386.3 811.539 2470.66 879 2585.35 879C2631.48 879 2661.81 874.493 2697.81 866.653V727.286C2667.43 734.017 2648.34 736.295 2612.34 736.295C2567.38 736.295 2534.77 716.055 2534.77 658.773V658.659H2534.71Z" fill="white"/>
<path d="M3060.67 277C2886.47 277 2753.81 406.136 2753.81 577.946C2753.81 749.756 2886.47 880 3060.67 880C3234.87 880 3369.81 750.868 3369.81 577.946C3369.81 405.025 3234.93 277 3060.67 277ZM3060.67 737.419C2968.51 737.419 2902.15 666.685 2902.15 577.946C2902.15 489.208 2968.45 419.581 3060.67 419.581C3152.89 419.581 3221.42 490.319 3221.42 577.946C3221.42 665.573 3152.84 737.419 3060.67 737.419Z" fill="white"/>
<path d="M3733.71 739.419C3640.44 739.419 3574.1 668.685 3574.1 579.946C3574.1 491.208 3640.4 421.581 3733.71 421.581C3792.17 421.581 3833.81 448.531 3860.78 492.319L3987.81 414.859C3933.86 330.621 3845.02 279 3733.79 279C3555.07 279 3425.81 408.137 3425.81 579.946C3425.81 751.756 3555.07 882 3733.79 882C3845.09 882 3933.86 830.324 3987.81 746.142L3860.78 668.685C3833.81 712.47 3792.17 739.419 3733.71 739.419Z" fill="white"/>
<rect x="40.8105" y="4" width="41.6562" height="30" rx="3" fill="white"/>
<rect x="41.3105" y="4.5" width="40.6562" height="29" rx="2.5" stroke="black" stroke-opacity="0.2"/>
<path d="M50.3262 16V16.7812H47.0918V16H50.3262ZM48.0605 22V15.1719C48.0605 14.8281 48.1413 14.5417 48.3027 14.3125C48.4642 14.0833 48.6738 13.9115 48.9316 13.7969C49.1895 13.6823 49.4616 13.625 49.748 13.625C49.9746 13.625 50.1595 13.6432 50.3027 13.6797C50.446 13.7161 50.5527 13.75 50.623 13.7812L50.3574 14.5781C50.3105 14.5625 50.2454 14.543 50.1621 14.5195C50.0814 14.4961 49.9746 14.4844 49.8418 14.4844C49.5371 14.4844 49.3171 14.5612 49.1816 14.7148C49.0488 14.8685 48.9824 15.0937 48.9824 15.3906V22H48.0605ZM51.6182 22V16H52.54V22H51.6182ZM52.0869 15C51.9072 15 51.7523 14.9388 51.6221 14.8164C51.4945 14.694 51.4307 14.5469 51.4307 14.375C51.4307 14.2031 51.4945 14.056 51.6221 13.9336C51.7523 13.8112 51.9072 13.75 52.0869 13.75C52.2666 13.75 52.4202 13.8112 52.5479 13.9336C52.6781 14.056 52.7432 14.2031 52.7432 14.375C52.7432 14.5469 52.6781 14.694 52.5479 14.8164C52.4202 14.9388 52.2666 15 52.0869 15ZM55.1504 18.3906V22H54.2285V16H55.1191V16.9375H55.1973C55.3379 16.6328 55.5514 16.388 55.8379 16.2031C56.1243 16.0156 56.4941 15.9219 56.9473 15.9219C57.3535 15.9219 57.709 16.0052 58.0137 16.1719C58.3184 16.3359 58.5553 16.5859 58.7246 16.9219C58.8939 17.2552 58.9785 17.6771 58.9785 18.1875V22H58.0566V18.25C58.0566 17.7786 57.9342 17.4115 57.6895 17.1484C57.4447 16.8828 57.1087 16.75 56.6816 16.75C56.3874 16.75 56.1243 16.8138 55.8926 16.9414C55.6634 17.069 55.4824 17.2552 55.3496 17.5C55.2168 17.7448 55.1504 18.0417 55.1504 18.3906ZM63.2725 16V16.7812H60.1631V16H63.2725ZM61.0693 14.5625H61.9912V20.2812C61.9912 20.5417 62.029 20.737 62.1045 20.8672C62.1826 20.9948 62.2816 21.0807 62.4014 21.125C62.5238 21.1667 62.6527 21.1875 62.7881 21.1875C62.8896 21.1875 62.973 21.1823 63.0381 21.1719C63.1032 21.1589 63.1553 21.1484 63.1943 21.1406L63.3818 21.9687C63.3193 21.9922 63.2321 22.0156 63.1201 22.0391C63.0081 22.0651 62.8662 22.0781 62.6943 22.0781C62.4339 22.0781 62.1787 22.0221 61.9287 21.9102C61.6813 21.7982 61.4756 21.6276 61.3115 21.3984C61.1501 21.1693 61.0693 20.8802 61.0693 20.5312V14.5625ZM67.0322 22.125C66.4906 22.125 66.0153 21.9961 65.6064 21.7383C65.2002 21.4805 64.8825 21.1198 64.6533 20.6562C64.4268 20.1927 64.3135 19.651 64.3135 19.0312C64.3135 18.4062 64.4268 17.8607 64.6533 17.3945C64.8825 16.9284 65.2002 16.5664 65.6064 16.3086C66.0153 16.0508 66.4906 15.9219 67.0322 15.9219C67.5739 15.9219 68.0479 16.0508 68.4541 16.3086C68.863 16.5664 69.1807 16.9284 69.4072 17.3945C69.6364 17.8607 69.751 18.4062 69.751 19.0312C69.751 19.651 69.6364 20.1927 69.4072 20.6562C69.1807 21.1198 68.863 21.4805 68.4541 21.7383C68.0479 21.9961 67.5739 22.125 67.0322 22.125ZM67.0322 21.2969C67.4437 21.2969 67.7822 21.1914 68.0479 20.9805C68.3135 20.7695 68.5101 20.4922 68.6377 20.1484C68.7653 19.8047 68.8291 19.4323 68.8291 19.0312C68.8291 18.6302 68.7653 18.2565 68.6377 17.9102C68.5101 17.5638 68.3135 17.2839 68.0479 17.0703C67.7822 16.8568 67.4437 16.75 67.0322 16.75C66.6208 16.75 66.2822 16.8568 66.0166 17.0703C65.751 17.2839 65.5544 17.5638 65.4268 17.9102C65.2992 18.2565 65.2354 18.6302 65.2354 19.0312C65.2354 19.4323 65.2992 19.8047 65.4268 20.1484C65.5544 20.4922 65.751 20.7695 66.0166 20.9805C66.2822 21.1914 66.6208 21.2969 67.0322 21.2969ZM73.5957 22.125C73.0332 22.125 72.5488 21.9922 72.1426 21.7266C71.7363 21.4609 71.4238 21.0951 71.2051 20.6289C70.9863 20.1628 70.877 19.6302 70.877 19.0312C70.877 18.4219 70.9889 17.8841 71.2129 17.418C71.4395 16.9492 71.7546 16.5833 72.1582 16.3203C72.5645 16.0547 73.0384 15.9219 73.5801 15.9219C74.002 15.9219 74.3822 16 74.7207 16.1562C75.0592 16.3125 75.3366 16.5312 75.5527 16.8125C75.7689 17.0937 75.903 17.4219 75.9551 17.7969H75.0332C74.9629 17.5234 74.8066 17.2812 74.5645 17.0703C74.3249 16.8568 74.002 16.75 73.5957 16.75C73.2363 16.75 72.9212 16.8437 72.6504 17.0312C72.3822 17.2161 72.1725 17.4779 72.0215 17.8164C71.873 18.1523 71.7988 18.5469 71.7988 19C71.7988 19.4635 71.8717 19.8672 72.0176 20.2109C72.166 20.5547 72.3743 20.8216 72.6426 21.0117C72.9134 21.2018 73.2311 21.2969 73.5957 21.2969C73.8353 21.2969 74.0527 21.2552 74.248 21.1719C74.4434 21.0885 74.6087 20.9688 74.7441 20.8125C74.8796 20.6562 74.9759 20.4687 75.0332 20.25H75.9551C75.903 20.6042 75.7741 20.9232 75.5684 21.207C75.3652 21.4883 75.0957 21.7122 74.7598 21.8789C74.4264 22.043 74.0384 22.125 73.5957 22.125Z" fill="black"/>
</svg>
