<svg width="4442" height="1334" viewBox="0 0 4442 1334" fill="none" xmlns="http://www.w3.org/2000/svg">
<mask id="mask0_0_1" style="mask-type:luminance" maskUnits="userSpaceOnUse" x="40" y="40" width="4362" height="1254">
<path d="M40 40H4401.87V1293.09H40V40Z" fill="white"/>
</mask>
<g mask="url(#mask0_0_1)">
<path d="M880.959 1003.49L689.375 410.914C680.464 384.182 700.514 357.449 728.36 357.449H1097.05C1124.89 357.449 1144.94 384.182 1136.03 410.914L943.335 1003.49C933.31 1032.45 890.983 1032.45 880.959 1003.49Z" fill="#A9A9A9"/>
<path d="M430.963 1003.49L238.266 410.914C229.355 384.182 249.404 357.449 277.251 357.449H645.938C673.784 357.449 693.833 384.182 684.923 410.914L492.225 1003.49C483.314 1032.45 440.988 1032.45 430.963 1003.49Z" fill="#A9A9A9"/>
<path d="M1959.17 355.219H1584.92C1554.84 355.219 1529.22 379.724 1529.22 410.912V986.777C1529.22 1007.95 1544.82 1026.88 1567.1 1027.99C1590.49 1029.1 1609.42 1011.28 1609.42 987.891V746.195H1782.07C1799.89 746.195 1816.6 732.817 1818.83 714.996C1821.06 693.832 1804.35 676.01 1784.3 676.01H1610.54V425.393H1958.06C1975.88 425.393 1992.59 412.026 1994.82 394.204C1997.04 373.041 1980.34 355.219 1959.17 355.219Z" fill="white"/>
<path d="M2470.44 957.823H2175.27V396.439C2175.27 375.276 2159.67 356.34 2137.4 355.215C2114.01 354.113 2095.07 371.923 2095.07 395.325V962.268C2095.07 997.922 2124.03 1028 2160.79 1028H2468.21C2486.02 1028 2502.73 1014.63 2504.97 996.808C2507.2 975.645 2490.49 957.823 2470.44 957.823Z" fill="white"/>
<path d="M3156.57 691.607C3156.57 741.73 3144.32 788.512 3120.93 829.725C3097.54 870.938 3064.12 903.24 3022.91 926.631C2981.7 950.022 2934.93 961.16 2883.68 961.16C2832.44 961.16 2785.66 948.908 2743.33 926.631C2702.12 903.24 2668.7 870.938 2645.32 829.725C2621.92 788.512 2609.67 741.73 2609.67 691.607C2609.67 641.483 2621.92 594.701 2645.32 553.488C2668.7 512.276 2702.12 479.974 2743.33 456.583C2784.56 433.192 2832.44 422.053 2883.68 422.053C2934.93 422.053 2981.7 434.306 3022.91 456.583C3064.12 479.974 3097.54 512.276 3120.93 553.488C3144.32 594.701 3156.57 640.369 3156.57 691.607ZM3064.12 394.207C3010.66 365.247 2950.51 349.653 2884.8 349.653C2819.07 349.653 2757.81 364.133 2704.35 394.207C2650.89 424.281 2607.44 465.494 2577.37 516.731C2547.29 567.969 2531.7 627.003 2531.7 691.607C2531.7 756.21 2547.29 815.245 2577.37 866.482C2607.44 917.72 2649.77 958.933 2704.35 989.007C2757.81 1019.08 2819.07 1033.56 2884.8 1033.56C2950.51 1033.56 3011.77 1019.08 3064.12 989.007C3117.59 960.046 3159.91 918.834 3189.99 866.482C3220.06 814.131 3235.67 755.097 3235.67 691.607C3235.67 627.003 3220.06 567.969 3189.99 516.731C3159.91 464.38 3117.59 423.167 3064.12 394.207Z" fill="white"/>
<path d="M4241.47 370.818C4234.77 360.793 4223.64 355.224 4211.39 355.224C4195.79 355.224 4181.32 365.249 4176.86 379.729L3996.42 912.153C3996.42 913.267 3995.29 913.267 3995.29 913.267C3994.19 913.267 3994.19 913.267 3994.19 912.153L3815.97 388.64C3809.29 368.59 3789.23 354.11 3768.08 354.11C3746.92 354.11 3726.87 367.477 3720.18 388.64L3537.51 909.914C3537.51 911.039 3536.4 911.039 3536.4 911.039C3535.28 911.039 3535.28 911.039 3535.28 909.914L3359.29 384.184C3353.72 366.363 3337.02 355.224 3318.08 355.224C3305.83 355.224 3294.69 360.793 3288 370.818C3281.32 380.843 3279.1 393.095 3283.55 404.234L3480.7 990.123C3488.49 1012.4 3509.66 1027.99 3533.04 1027.99C3556.45 1027.99 3577.6 1012.4 3585.41 990.123L3762.51 477.748C3762.51 476.635 3763.62 476.635 3764.74 476.635C3764.74 476.635 3765.85 476.635 3766.95 477.748L3942.95 990.123C3950.74 1012.4 3971.91 1027.99 3996.42 1027.99C4020.92 1027.99 4042.09 1012.4 4049.88 990.123L4247.04 404.234C4250.38 391.981 4248.15 380.843 4241.47 370.818Z" fill="white"/>
<path d="M1107.07 1003.49L914.373 410.915C905.462 384.182 925.512 357.45 953.358 357.45H1322.05C1349.89 357.45 1369.94 384.182 1361.03 410.915L1168.33 1002.37C1159.42 1032.45 1115.98 1032.45 1107.07 1003.49Z" fill="white"/>
<path d="M655.961 1003.49L463.264 410.914C454.353 384.182 474.402 357.449 502.249 357.449H870.936C898.782 357.449 918.831 384.182 909.921 410.914L718.337 1003.49C708.312 1032.45 665.986 1032.45 655.961 1003.49Z" fill="white"/>
</g>
<rect x="40" y="4" width="36.3594" height="30" rx="3" fill="white"/>
<rect x="40.5" y="4.5" width="35.3594" height="29" rx="2.5" stroke="black" stroke-opacity="0.2"/>
<path d="M46.9688 22V14H51.7656V14.8594H47.9375V17.5625H51.4063V18.4219H47.9375V22H46.9688ZM54.2217 14V22H53.2998V14H54.2217ZM58.3477 22.125C57.806 22.125 57.3307 21.9961 56.9219 21.7383C56.5156 21.4805 56.1979 21.1198 55.9688 20.6562C55.7422 20.1927 55.6289 19.651 55.6289 19.0312C55.6289 18.4062 55.7422 17.8607 55.9688 17.3945C56.1979 16.9284 56.5156 16.5664 56.9219 16.3086C57.3307 16.0508 57.806 15.9219 58.3477 15.9219C58.8893 15.9219 59.3633 16.0508 59.7695 16.3086C60.1784 16.5664 60.4961 16.9284 60.7227 17.3945C60.9518 17.8607 61.0664 18.4062 61.0664 19.0312C61.0664 19.651 60.9518 20.1927 60.7227 20.6562C60.4961 21.1198 60.1784 21.4805 59.7695 21.7383C59.3633 21.9961 58.8893 22.125 58.3477 22.125ZM58.3477 21.2969C58.7591 21.2969 59.0977 21.1914 59.3633 20.9805C59.6289 20.7695 59.8255 20.4922 59.9531 20.1484C60.0807 19.8047 60.1445 19.4323 60.1445 19.0312C60.1445 18.6302 60.0807 18.2565 59.9531 17.9102C59.8255 17.5638 59.6289 17.2839 59.3633 17.0703C59.0977 16.8568 58.7591 16.75 58.3477 16.75C57.9362 16.75 57.5977 16.8568 57.332 17.0703C57.0664 17.2839 56.8698 17.5638 56.7422 17.9102C56.6146 18.2565 56.5508 18.6302 56.5508 19.0312C56.5508 19.4323 56.6146 19.8047 56.7422 20.1484C56.8698 20.4922 57.0664 20.7695 57.332 20.9805C57.5977 21.1914 57.9362 21.2969 58.3477 21.2969ZM63.6289 22L61.8008 16H62.7695L64.0664 20.5938H64.1289L65.4102 16H66.3945L67.6602 20.5781H67.7227L69.0195 16H69.9883L68.1602 22H67.2539L65.9414 17.3906H65.8477L64.5352 22H63.6289Z" fill="black"/>
</svg>
