<svg width="3357" height="950" viewBox="0 0 3357 950" fill="none" xmlns="http://www.w3.org/2000/svg">
<path d="M638.265 55.312C313.977 55.312 50.9375 223.745 50.9375 431.005C50.9375 638.265 313.977 823.104 638.265 823.104C962.554 823.104 1225.59 638.812 1225.59 431.005C1225.59 223.198 962.554 55.312 638.265 55.312Z" fill="white"/>
<path d="M446.866 315.071C446.319 315.618 440.851 321.633 444.679 326.555C453.975 338.039 481.865 344.601 510.302 338.586C527.255 334.758 548.582 317.805 569.91 300.852C592.878 282.806 615.299 264.76 637.721 257.65C661.782 249.994 677.094 253.276 687.485 256.557C698.422 259.838 711.547 267.494 732.874 282.806C772.248 312.336 930.291 450.692 958.181 474.207C980.055 464.364 1085.05 421.708 1217.94 392.725C1206.46 321.633 1163.8 254.369 1098.18 201.324C1006.85 239.604 888.183 262.572 778.81 209.527C778.264 209.527 719.203 181.637 661.236 182.731C574.832 184.918 537.098 222.105 497.724 262.025L446.866 315.071Z" fill="white"/>
<path d="M951.07 488.972C949.429 487.332 765.137 326.008 723.029 294.837C698.967 276.79 685.296 271.869 671.077 270.228C663.968 269.134 653.578 270.775 646.468 272.415C626.782 277.884 601.626 294.837 579.205 312.336C555.69 330.93 533.815 348.429 513.581 352.804C487.332 358.819 455.614 351.71 440.849 341.867C434.834 338.039 431.006 333.117 428.818 328.742C423.349 316.164 433.193 306.321 434.834 304.68L485.692 249.447C491.707 243.432 497.723 237.416 503.738 231.948C487.332 234.135 472.02 238.51 457.255 242.338C438.662 247.26 421.162 252.182 403.116 252.182C395.46 252.182 355.539 245.619 347.883 243.432C301.947 230.854 249.448 218.823 189.293 190.386C117.108 243.979 70.0777 310.149 55.8594 384.522C66.2497 387.256 93.5927 393.272 100.702 394.912C264.213 431.552 315.071 468.738 324.368 476.394C334.211 465.457 348.977 458.348 364.835 458.348C382.882 458.348 399.288 467.645 409.131 481.316C418.428 473.66 431.552 467.645 447.958 467.645C455.614 467.645 463.27 469.285 471.473 471.473C490.066 478.035 499.363 490.066 504.285 501.003C510.3 498.269 517.956 496.081 527.253 496.081C536.003 496.081 545.299 498.269 554.596 502.097C584.673 515.221 589.595 544.752 586.861 567.173C589.048 567.173 591.236 566.626 593.423 566.626C628.969 566.626 658.499 595.61 658.499 631.703C658.499 642.64 655.765 653.03 650.843 662.327C660.687 667.796 685.296 680.373 707.17 677.639C724.67 675.452 731.232 669.436 733.419 666.155C735.06 663.967 736.7 661.233 735.06 659.046L689.124 607.641C689.124 607.641 681.468 600.532 684.202 597.797C686.936 595.063 691.311 598.891 694.592 601.625C718.107 621.312 746.544 650.843 746.544 650.843C747.091 651.39 748.731 654.671 759.669 656.858C768.965 658.499 784.824 657.405 796.308 648.109C799.043 645.921 801.777 642.64 804.511 639.906L803.964 640.453C815.995 625.14 802.871 609.828 802.871 609.828L748.731 549.127C748.731 549.127 741.075 542.018 743.81 539.283C745.997 536.549 750.919 540.377 754.747 543.111C771.699 557.33 795.761 581.392 819.276 604.36C823.651 607.641 843.885 620.219 871.228 602.719C887.634 591.782 890.915 578.657 890.368 568.814C889.275 555.689 878.884 546.392 878.884 546.392L805.058 472.566C805.058 472.566 797.402 466.004 800.136 462.723C802.324 459.989 807.245 463.817 810.527 466.551C834.042 486.238 897.477 544.205 897.477 544.205C898.571 544.752 920.446 560.611 947.242 543.111C957.085 537.096 963.101 527.799 963.647 516.862C964.194 499.909 951.07 488.972 951.07 488.972Z" fill="white"/>
<path d="M593.969 582.486C582.485 582.486 569.907 589.048 568.267 587.954C567.173 587.407 568.814 583.032 569.908 580.298C571.001 577.564 585.766 532.721 549.674 516.862C521.784 504.831 504.284 518.503 498.816 524.518C497.175 526.159 496.628 526.159 496.628 523.971C496.081 515.769 492.253 493.894 468.191 486.238C433.739 475.848 411.318 499.91 405.849 508.659C403.115 488.972 386.709 473.66 366.475 473.66C344.054 473.66 326.555 491.707 326.008 513.581C326.008 536.002 344.054 553.502 365.929 553.502C376.866 553.502 386.709 549.127 393.818 542.565C393.818 542.565 394.365 543.112 393.818 543.658C392.178 553.502 388.897 589.595 426.63 604.36C441.942 610.375 454.52 606.001 465.457 598.344C468.738 596.157 469.285 597.251 468.738 599.985C467.098 609.282 469.285 628.969 497.175 640.453C518.503 649.203 531.08 640.453 539.283 632.797C543.111 629.515 543.658 630.062 544.205 634.984C545.299 661.78 567.72 683.108 594.516 683.108C622.406 683.108 644.827 660.686 644.827 632.797C644.281 605.454 621.859 583.032 593.969 582.486Z" fill="white"/>
<path d="M638.265 40C307.961 40 40 215.542 40 431.552C40 437.021 40 452.333 40 454.52C40 683.108 274.056 868.493 638.265 868.493C1002.47 868.493 1236.53 683.108 1236.53 454.52V431.552C1236.53 215.542 968.569 40 638.265 40ZM1209.19 387.803C1079.03 416.787 982.24 458.895 957.632 469.285C900.758 419.521 769.512 305.774 733.966 278.978C713.732 263.666 700.06 255.463 687.483 252.182C682.014 250.541 674.358 248.901 664.514 248.901C655.218 248.901 645.921 250.541 635.531 253.822C612.563 260.932 589.595 279.525 567.72 297.024V297.571C546.939 313.977 525.612 330.93 509.753 334.758C502.644 336.398 495.535 336.945 488.425 336.945C470.379 336.945 453.973 331.477 447.958 323.82C446.864 322.727 447.411 320.539 450.145 317.258L450.692 316.711L500.456 263.119C539.83 223.745 576.47 187.105 661.78 184.918C663.421 184.918 664.514 184.918 666.155 184.918C719.2 184.918 772.246 208.433 777.714 211.167C827.479 235.229 878.337 247.807 930.289 247.807C983.881 247.807 1039.11 234.682 1097.08 207.886C1156.69 259.291 1197.16 321.086 1209.19 387.803ZM638.265 62.9682C813.807 62.9682 970.756 113.279 1076.3 192.574C1025.44 214.448 976.772 225.933 929.742 225.933C881.618 225.933 833.494 214.449 787.011 191.48C784.824 190.387 726.31 162.497 665.061 162.497C663.421 162.497 661.78 162.497 660.14 162.497C588.501 164.137 548.58 189.293 521.237 211.714C494.988 212.261 472.02 218.823 451.786 224.292C433.739 229.214 418.427 233.589 403.115 233.589C397.1 233.589 385.616 233.042 384.522 233.042C367.022 232.495 279.525 211.167 209.527 184.918C315.618 109.998 468.192 62.9682 638.265 62.9682ZM189.84 200.23C262.572 230.307 351.163 253.276 379.6 254.916C387.256 255.463 395.459 256.557 404.209 256.557C422.802 256.557 441.395 251.088 459.442 246.166C469.832 243.432 481.863 240.151 493.894 237.417C490.613 240.698 487.332 243.979 484.051 247.26L433.193 301.946C429.365 305.774 420.615 316.711 426.083 329.836C428.271 335.305 433.193 340.226 439.208 344.601C451.239 352.804 473.113 358.273 492.8 358.273C500.456 358.273 507.566 357.726 514.128 356.085C535.455 351.164 557.877 333.664 581.392 314.524C599.985 299.759 626.781 280.619 647.562 275.15C653.577 273.509 660.14 272.416 666.155 272.416C667.796 272.416 669.436 272.416 671.077 272.963C684.748 274.603 697.873 279.525 720.841 297.024C762.402 328.195 946.694 489.519 948.335 491.16C948.335 491.16 960.366 501.55 959.272 518.503C958.725 527.799 953.803 536.002 944.507 542.018C936.851 546.94 928.648 549.674 920.445 549.674C907.867 549.674 899.664 543.658 899.118 543.658C898.571 543.112 835.135 485.144 812.167 465.457C808.339 462.176 805.057 459.442 801.229 459.442C799.042 459.442 797.401 460.536 796.308 461.629C792.48 466.004 796.855 472.567 801.776 476.395L875.603 550.767C875.603 550.767 884.899 559.517 885.993 571.001C886.54 583.032 880.524 593.423 868.493 601.626C859.744 607.641 850.994 610.375 842.244 610.375C830.76 610.375 823.104 605.454 821.463 603.813L811.073 593.423C791.933 574.283 771.699 554.596 756.934 542.565C753.106 539.83 749.825 537.096 745.997 537.096C744.356 537.096 742.715 537.643 741.075 539.284C739.434 540.924 738.341 544.205 742.169 550.221C743.809 552.408 745.997 554.596 745.997 554.596L799.589 615.297C800.136 615.844 810.526 628.422 800.683 640.999L798.495 643.187C796.855 644.828 795.214 646.468 793.573 648.109C784.277 655.765 772.246 656.312 767.324 656.312C764.59 656.312 762.402 656.312 760.215 655.765C754.746 654.671 751.465 653.577 749.825 651.39L749.278 650.843C746.543 647.562 719.2 620.219 696.779 601.626C694.045 598.891 690.217 596.157 686.389 596.157C684.748 596.157 683.108 596.704 681.467 598.344C677.092 603.266 683.655 610.375 686.389 613.11L732.325 663.968C732.325 664.515 731.778 665.608 730.685 667.249C729.044 669.436 723.575 674.905 706.623 677.092C704.435 677.092 702.795 677.639 700.607 677.639C683.655 677.639 665.061 669.436 655.765 664.515C660.14 655.218 662.327 645.374 662.327 635.531C662.327 597.797 631.703 567.173 593.969 567.173C593.423 567.173 592.329 567.173 591.782 567.173C592.876 549.674 590.688 517.409 556.783 502.644C546.939 498.269 537.643 496.081 528.346 496.081C521.237 496.081 514.128 497.175 507.566 499.91C500.456 486.238 488.972 476.394 474.207 471.473C466.004 468.738 457.801 467.098 449.598 467.098C435.38 467.098 422.802 471.473 411.318 479.129C400.381 465.457 383.975 457.255 366.476 457.255C351.163 457.255 336.398 463.27 325.461 474.207C311.243 463.27 254.369 427.177 102.889 392.725C95.7797 391.084 79.3739 386.163 68.9836 383.428C82.1082 313.977 125.31 251.635 189.84 200.23ZM470.926 595.61L469.285 593.97H467.645C466.551 593.97 464.91 594.516 463.27 595.61C455.614 601.079 447.958 603.813 440.849 603.813C436.474 603.813 432.646 602.719 428.271 601.626C393.272 587.954 396.006 554.596 397.647 544.752C397.647 542.565 397.647 540.924 396.006 539.83L393.272 537.643L391.084 539.83C383.975 546.393 375.225 550.221 365.929 550.221C345.695 550.221 329.289 533.815 329.289 513.581C329.289 493.347 345.695 476.941 365.929 476.941C383.975 476.941 399.834 490.613 402.021 508.659L403.115 518.503L408.584 510.3C409.131 509.206 423.896 486.785 451.239 486.785C456.161 486.785 461.629 487.879 467.098 489.519C488.972 496.082 492.253 515.768 492.8 523.971C493.347 528.893 496.628 528.893 497.175 528.893C498.816 528.893 500.456 527.799 501.55 526.706C505.378 522.331 514.675 515.222 528.346 515.222C534.909 515.222 541.471 516.862 548.58 519.597C583.032 534.362 567.173 578.111 567.173 578.657C564.439 585.767 563.892 589.048 566.626 590.688L567.72 591.235H568.814C570.454 591.235 572.095 590.688 575.376 589.595C580.298 587.954 586.86 585.767 593.969 585.767C619.672 586.314 640.999 607.094 640.999 632.797C640.999 658.499 619.672 679.827 593.969 679.827C568.814 679.827 548.033 660.14 546.939 634.984C546.939 632.797 546.393 627.328 542.018 627.328C539.83 627.328 538.19 628.422 536.549 630.062C531.081 634.984 523.971 640.453 513.581 640.453C508.659 640.453 503.738 639.359 498.269 637.172C471.473 626.234 470.926 608.188 472.02 600.532C472.02 598.891 472.566 597.251 470.926 595.61ZM638.265 799.042C320.539 799.042 62.9681 634.437 62.9681 431.005C62.9681 422.802 63.515 414.599 64.6087 406.396C67.343 406.943 92.4986 412.959 97.4203 414.052C252.182 448.505 303.587 484.051 312.336 491.16C309.602 498.269 307.962 505.925 307.962 513.581C307.962 545.846 334.211 571.548 365.929 571.548C369.757 571.548 373.038 571.001 376.866 570.455C381.788 593.969 397.1 612.016 420.615 621.313C427.724 624.047 434.286 625.141 441.395 625.141C445.77 625.141 450.145 624.594 454.52 623.5C458.895 634.437 468.738 648.109 490.613 657.405C498.269 660.686 505.925 662.327 513.581 662.327C519.596 662.327 525.612 661.233 531.081 659.046C541.471 684.748 566.626 701.701 594.516 701.701C613.11 701.701 630.609 694.045 643.734 680.92C654.671 686.936 678.186 698.42 701.701 698.42C704.982 698.42 707.716 698.42 710.451 697.873C733.966 695.139 744.903 685.842 749.825 678.733C750.918 677.639 751.465 675.999 752.012 674.905C757.481 676.545 763.496 677.639 770.605 677.639C783.183 677.639 795.761 673.264 808.339 664.515C820.37 655.765 829.119 643.187 830.213 632.25V631.703C834.588 632.797 838.416 632.797 842.791 632.797C855.916 632.797 869.04 628.969 881.071 620.766C905.133 604.907 908.961 584.673 908.961 571.548C913.336 572.642 917.164 572.642 921.539 572.642C934.117 572.642 946.147 568.814 957.632 561.705C972.397 552.408 981.146 537.643 982.787 520.69C983.881 509.206 980.6 497.722 974.584 487.879C1014.5 470.926 1105.83 437.568 1213.02 412.959C1213.56 418.974 1213.56 424.99 1213.56 431.552C1213.56 634.437 955.991 799.042 638.265 799.042Z" fill="#A9A9A9"/>
<path d="M3283.38 202.663C3261.5 175.32 3228.69 161.649 3184.4 161.649C3140.1 161.649 3107.29 175.32 3085.41 202.663C3063.54 230.006 3052.6 262.271 3052.6 298.911C3052.6 336.097 3063.54 368.909 3085.41 395.705C3107.29 422.501 3140.1 436.173 3184.4 436.173C3228.69 436.173 3261.5 422.501 3283.38 395.705C3305.25 368.909 3316.19 336.644 3316.19 298.911C3316.19 261.177 3305.25 230.006 3283.38 202.663ZM3229.79 359.065C3219.39 373.284 3204.08 379.846 3184.4 379.846C3164.71 379.846 3149.4 372.737 3139.01 359.065C3128.62 344.847 3123.15 325.16 3123.15 299.458C3123.15 273.755 3128.62 254.068 3139.01 239.85C3149.4 226.178 3164.71 219.069 3184.4 219.069C3204.08 219.069 3219.39 226.178 3229.79 239.85C3240.18 253.521 3245.64 273.755 3245.64 299.458C3245.64 325.16 3240.18 344.847 3229.79 359.065ZM2728.31 179.695C2706.44 168.758 2681.28 162.742 2652.85 162.742C2609.1 162.742 2578.47 174.226 2560.43 196.648C2548.94 211.413 2542.93 230.006 2541.29 252.428H2606.36C2608.01 242.584 2611.29 234.381 2616.21 228.913C2622.77 221.257 2634.25 216.882 2650.66 216.882C2664.88 216.882 2675.82 219.069 2683.47 222.897C2691.13 226.725 2694.41 234.381 2694.41 244.772C2694.41 253.521 2689.49 260.084 2679.64 263.912C2674.18 266.099 2665.43 268.287 2652.85 269.927L2629.88 272.661C2603.63 275.943 2583.94 281.411 2570.27 289.067C2545.66 303.286 2533.09 326.254 2533.09 357.971C2533.09 382.58 2540.74 401.174 2556.05 414.845C2571.37 427.97 2591.05 433.985 2614.57 435.079C2762.22 441.641 2760.58 357.425 2761.67 339.925V243.131C2761.13 212.507 2750.19 191.179 2728.31 179.695ZM2693.86 326.801C2693.32 349.222 2686.75 365.081 2674.72 373.284C2662.14 382.033 2648.47 385.861 2633.71 385.861C2624.41 385.861 2616.21 383.127 2610.19 378.205C2603.63 373.284 2600.35 364.534 2600.35 353.05C2600.35 339.925 2605.82 330.629 2616.21 324.613C2622.77 320.785 2632.61 318.051 2647.38 315.316L2662.69 312.582C2670.35 310.942 2676.36 309.301 2680.74 307.66C2685.11 306.02 2689.49 303.832 2693.86 301.098V326.801ZM2392 220.71C2408.95 220.71 2420.98 226.178 2429.18 236.569C2434.65 244.225 2437.93 252.974 2439.57 262.818H2512.3C2508.48 226.178 2495.35 200.476 2474.02 186.257C2452.15 172.039 2424.26 164.383 2390.35 164.383C2350.43 164.383 2318.72 176.414 2296.29 201.023C2273.33 225.631 2262.39 260.084 2262.39 304.379C2262.39 343.206 2272.78 375.471 2293.56 400.08C2314.34 424.688 2346.06 436.719 2389.81 436.719C2433.56 436.719 2466.37 421.954 2488.79 392.424C2503.01 374.377 2510.66 354.69 2512.3 334.457H2439.03C2437.38 348.128 2433.56 359.065 2426.45 367.815C2419.34 376.018 2407.85 380.393 2390.9 380.393C2367.39 380.393 2351.53 369.456 2342.78 348.128C2337.86 336.644 2335.67 321.332 2335.67 302.739C2335.67 284.145 2337.86 267.193 2342.78 255.162C2351.53 232.194 2367.93 220.71 2392 220.71ZM2242.16 163.836C2092.86 163.836 2101.61 296.176 2101.61 296.176V430.704H2169.42V304.926C2169.42 284.145 2172.16 268.833 2177.08 258.99C2186.38 241.49 2204.42 232.741 2231.77 232.741C2233.95 232.741 2236.69 232.741 2239.97 233.287C2243.25 233.287 2247.08 233.834 2251.45 234.381V165.477C2248.72 165.477 2246.53 164.93 2245.44 164.93C2244.34 163.836 2243.25 163.836 2242.16 163.836ZM2047.47 214.147C2035.99 196.648 2020.68 184.07 2003.18 175.867C1985.13 167.664 1964.9 163.836 1942.48 163.836C1904.74 163.836 1874.12 175.867 1850.6 199.382C1827.09 223.444 1815.06 257.349 1815.06 302.192C1815.06 349.769 1828.18 384.221 1854.43 405.548C1880.68 426.876 1910.76 437.266 1945.21 437.266C1986.77 437.266 2019.04 424.688 2042 399.533C2054.58 386.408 2062.24 373.284 2065.52 360.706H1993.33C1990.6 364.534 1987.32 368.362 1984.04 371.096C1974.19 378.752 1961.62 381.487 1946.3 381.487C1932.09 381.487 1920.6 379.299 1910.21 372.737C1893.26 362.346 1883.96 344.847 1882.87 319.145H2070.44C2070.44 296.723 2069.89 279.77 2068.25 267.74C2064.97 246.959 2057.86 229.459 2047.47 214.147ZM1883.96 273.755C1886.15 256.802 1892.16 243.678 1902.01 233.834C1911.3 223.991 1924.98 219.069 1942.48 219.069C1958.34 219.069 1971.46 223.444 1982.4 232.741C1993.33 242.037 1998.8 255.709 2000.44 273.208H1883.96V273.755ZM1679.98 162.742C1648.27 162.742 1621.47 176.414 1602.88 198.835C1585.38 176.961 1558.58 162.742 1525.77 162.742C1459.6 162.742 1416.94 211.413 1416.94 275.942V430.157H1478.74V274.302C1478.74 245.865 1497.88 226.178 1525.77 226.178C1566.78 226.178 1570.61 260.084 1570.61 274.302V430.157H1632.41V274.302C1632.41 245.865 1652.09 226.178 1679.44 226.178C1720.45 226.178 1724.83 260.084 1724.83 274.302V430.157H1786.62V275.942C1787.71 209.772 1747.79 162.742 1679.98 162.742ZM2964.56 129.931V202.663C2956.9 190.632 2947.06 180.789 2935.03 174.227C2923 167.664 2909.33 163.836 2893.47 163.836C2859.56 163.836 2832.76 176.414 2812.53 201.57C2792.3 226.725 2781.91 263.365 2781.91 307.114C2781.91 345.394 2792.3 376.565 2812.53 400.627C2833.31 424.689 2873.23 435.626 2909.33 435.626C3034.01 435.626 3032.92 328.441 3032.92 328.441V82.354C3032.92 82.354 2964.56 75.2449 2964.56 129.931ZM2951.43 359.612C2941.59 373.831 2926.82 380.94 2908.23 380.94C2889.64 380.94 2874.87 373.831 2865.58 359.612C2856.28 345.394 2851.36 324.613 2851.36 300.551C2851.36 278.677 2855.73 260.084 2865.03 245.318C2874.33 230.553 2888.54 222.897 2908.23 222.897C2921.36 222.897 2932.29 226.725 2942.14 234.928C2958 248.599 2966.2 272.661 2966.2 304.379C2966.75 326.801 2961.28 345.394 2951.43 359.612ZM1560.22 534.061C1504.44 531.326 1476 544.998 1457.96 558.669C1432.8 577.809 1416.94 606.793 1416.94 652.729V888.426H1449.75C1458.5 888.426 1467.25 885.145 1473.82 879.676C1480.93 873.114 1484.75 864.911 1484.75 855.068V766.476C1492.96 780.148 1503.35 790.538 1516.47 797.1C1529.05 803.116 1543.81 805.85 1560.22 805.85C1591.39 805.85 1617.09 793.272 1636.78 768.664C1656.47 742.961 1666.86 709.603 1666.86 668.588C1666.86 627.027 1657.56 598.043 1634.59 570.153C1617.09 547.732 1589.2 535.154 1560.22 534.061ZM1583.74 727.102C1573.89 740.774 1560.22 747.883 1542.72 747.883C1524.13 747.883 1509.91 741.321 1500.07 727.102C1490.22 714.524 1485.3 695.931 1485.3 671.323C1485.3 644.526 1489.68 624.839 1498.97 612.262C1508.82 598.59 1523.03 591.481 1541.08 591.481C1559.13 591.481 1573.89 598.59 1583.74 612.262C1593.58 625.933 1598.5 645.62 1598.5 671.323C1598.5 694.837 1593.58 713.431 1583.74 727.102ZM2142.63 558.122C2119.66 540.623 2096.14 531.326 2055.68 532.42C2014.66 533.514 1984.58 544.998 1965.99 570.153C1947.4 595.309 1938.1 628.121 1938.1 668.588C1938.1 703.04 1945.21 731.477 1958.88 752.805C1973.1 774.132 1989.51 788.897 2009.19 796.554C2028.88 804.21 2048.57 805.85 2068.25 801.475C2087.94 797.1 2103.8 785.616 2115.83 767.023V783.429C2114.74 804.21 2109.27 820.069 2100.52 830.459C2091.77 840.849 2081.93 847.412 2070.99 849.599C2060.05 851.786 2049.66 850.693 2038.72 845.771C2027.79 840.849 2020.13 833.74 2014.66 824.443H1943.02C1961.62 880.223 1994.97 904.832 2054.58 908.66C2150.83 915.769 2182 833.74 2182 789.991V651.635C2183.09 606.793 2167.78 577.263 2142.63 558.122ZM2114.19 694.291C2111.46 709.603 2107.63 721.087 2101.61 728.196C2089.03 745.149 2069.89 751.164 2044.19 746.242C2017.94 741.32 2004.82 716.165 2004.82 671.323C2004.82 650.542 2008.65 631.948 2016.3 615.543C2023.96 599.137 2039.27 590.934 2061.14 590.934C2077.55 590.934 2090.13 596.95 2098.33 608.434C2107.08 620.465 2112 633.589 2114.74 648.901C2116.92 663.666 2116.92 678.978 2114.19 694.291ZM1880.13 551.56C1858.26 540.623 1833.1 534.607 1804.67 534.607C1760.92 534.607 1730.29 546.091 1712.25 568.513C1700.76 583.278 1694.75 601.871 1693.11 624.292H1758.18C1759.82 614.449 1763.11 606.246 1768.03 600.778C1774.59 593.122 1786.07 588.747 1802.48 588.747C1816.7 588.747 1827.64 590.934 1835.29 594.762C1842.95 598.59 1846.23 606.246 1846.23 616.636C1846.23 625.386 1841.31 631.949 1831.46 635.777C1825.99 637.964 1817.25 640.152 1804.67 641.792L1781.7 644.526C1755.45 647.808 1735.22 653.276 1722.09 660.932C1697.48 675.151 1684.9 698.119 1684.9 729.836C1684.9 754.445 1692.56 773.039 1707.87 786.71C1723.19 799.835 1742.87 805.85 1766.39 806.944C1913.49 813.506 1911.85 729.29 1913.49 711.79V614.996C1913.49 583.825 1902.56 562.497 1880.13 551.56ZM1845.68 698.666C1845.13 721.087 1838.57 736.946 1826.54 745.149C1813.96 753.898 1800.29 757.726 1785.53 757.726C1776.23 757.726 1768.57 754.992 1762.01 750.07C1755.45 745.149 1752.17 736.399 1752.17 724.915C1752.17 711.79 1757.64 702.494 1768.03 696.478C1774.59 692.65 1784.43 689.916 1799.2 687.181L1814.51 684.447C1822.17 682.807 1828.18 681.713 1832.56 679.525C1836.93 677.885 1841.31 675.697 1845.68 672.963V698.666ZM2439.03 572.888C2417.15 545.545 2384.34 531.873 2340.04 531.873C2295.75 531.873 2262.94 545.545 2241.06 572.888C2219.19 600.231 2208.25 632.495 2208.25 669.135C2208.25 705.775 2219.19 739.133 2241.06 765.929C2262.94 792.725 2295.75 805.85 2340.04 805.85C2384.34 805.85 2417.15 792.179 2439.03 765.929C2460.9 739.133 2471.84 706.868 2471.84 669.135C2471.84 631.402 2460.9 600.231 2439.03 572.888ZM2385.43 728.743C2375.04 742.961 2359.73 749.523 2340.04 749.523C2320.36 749.523 2305.04 742.414 2294.65 728.743C2283.72 714.524 2278.8 694.838 2278.8 669.135C2278.8 643.433 2284.26 623.746 2294.65 609.527C2305.04 595.856 2320.36 588.747 2340.04 588.747C2359.73 588.747 2375.04 595.856 2385.43 609.527C2395.82 623.199 2401.29 643.433 2401.29 669.135C2401.29 695.384 2395.82 715.071 2385.43 728.743Z" fill="white"/>
<rect x="40" y="4" width="87.0938" height="30" rx="3" fill="white"/>
<rect x="40.5" y="4.5" width="86.0938" height="29" rx="2.5" stroke="black" stroke-opacity="0.2"/>
<path d="M46.9688 14H48.125L50.8438 20.6406H50.9375L53.6563 14H54.8125V22H53.9062V15.9219H53.8281L51.3281 22H50.4531L47.9531 15.9219H47.875V22H46.9688V14ZM59.1455 22.125C58.5674 22.125 58.0687 21.9974 57.6494 21.7422C57.2327 21.4844 56.9111 21.125 56.6846 20.6641C56.4606 20.2005 56.3486 19.6615 56.3486 19.0469C56.3486 18.4323 56.4606 17.8906 56.6846 17.4219C56.9111 16.9505 57.2262 16.5833 57.6299 16.3203C58.0361 16.0547 58.5101 15.9219 59.0518 15.9219C59.3643 15.9219 59.6729 15.974 59.9775 16.0781C60.2822 16.1823 60.5596 16.3516 60.8096 16.5859C61.0596 16.8177 61.2588 17.125 61.4072 17.5078C61.5557 17.8906 61.6299 18.362 61.6299 18.9219V19.3125H57.0049V18.5156H60.6924C60.6924 18.1771 60.6247 17.875 60.4893 17.6094C60.3564 17.3437 60.1663 17.1341 59.9189 16.9805C59.6742 16.8268 59.3851 16.75 59.0518 16.75C58.6846 16.75 58.3669 16.8411 58.0986 17.0234C57.833 17.2031 57.6286 17.4375 57.4854 17.7266C57.3421 18.0156 57.2705 18.3255 57.2705 18.6562V19.1875C57.2705 19.6406 57.3486 20.0247 57.5049 20.3398C57.6637 20.6523 57.8838 20.8906 58.165 21.0547C58.4463 21.2161 58.7731 21.2969 59.1455 21.2969C59.3877 21.2969 59.6064 21.263 59.8018 21.1953C59.9997 21.125 60.1702 21.0208 60.3135 20.8828C60.4567 20.7422 60.5674 20.5677 60.6455 20.3594L61.5361 20.6094C61.4424 20.9115 61.2848 21.1771 61.0635 21.4062C60.8421 21.6328 60.5687 21.8099 60.2432 21.9375C59.9176 22.0625 59.5518 22.125 59.1455 22.125ZM63.0322 22V16H63.9229V16.9062H63.9854C64.0947 16.6094 64.2926 16.3685 64.5791 16.1836C64.8656 15.9987 65.1885 15.9062 65.5479 15.9062C65.6156 15.9062 65.7002 15.9076 65.8018 15.9102C65.9033 15.9128 65.9801 15.9167 66.0322 15.9219V16.8594C66.001 16.8516 65.9294 16.8398 65.8174 16.8242C65.708 16.806 65.5921 16.7969 65.4697 16.7969C65.1781 16.7969 64.9176 16.8581 64.6885 16.9805C64.4619 17.1003 64.2822 17.2669 64.1494 17.4805C64.0192 17.6914 63.9541 17.9323 63.9541 18.2031V22H63.0322ZM69.3799 22.125C68.8174 22.125 68.333 21.9922 67.9268 21.7266C67.5205 21.4609 67.208 21.0951 66.9893 20.6289C66.7705 20.1628 66.6611 19.6302 66.6611 19.0312C66.6611 18.4219 66.7731 17.8841 66.9971 17.418C67.2236 16.9492 67.5387 16.5833 67.9424 16.3203C68.3486 16.0547 68.8226 15.9219 69.3643 15.9219C69.7861 15.9219 70.1663 16 70.5049 16.1562C70.8434 16.3125 71.1208 16.5312 71.3369 16.8125C71.5531 17.0937 71.6872 17.4219 71.7393 17.7969H70.8174C70.7471 17.5234 70.5908 17.2812 70.3486 17.0703C70.109 16.8568 69.7861 16.75 69.3799 16.75C69.0205 16.75 68.7054 16.8437 68.4346 17.0312C68.1663 17.2161 67.9567 17.4779 67.8057 17.8164C67.6572 18.1523 67.583 18.5469 67.583 19C67.583 19.4635 67.6559 19.8672 67.8018 20.2109C67.9502 20.5547 68.1585 20.8216 68.4268 21.0117C68.6976 21.2018 69.0153 21.2969 69.3799 21.2969C69.6195 21.2969 69.8369 21.2552 70.0322 21.1719C70.2275 21.0885 70.3929 20.9688 70.5283 20.8125C70.6637 20.6562 70.7601 20.4687 70.8174 20.25H71.7393C71.6872 20.6042 71.5583 20.9232 71.3525 21.207C71.1494 21.4883 70.8799 21.7122 70.5439 21.8789C70.2106 22.043 69.8226 22.125 69.3799 22.125ZM74.8525 22.1406C74.4723 22.1406 74.1273 22.069 73.8174 21.9258C73.5075 21.7799 73.2614 21.5703 73.0791 21.2969C72.8968 21.0208 72.8057 20.6875 72.8057 20.2969C72.8057 19.9531 72.8734 19.6745 73.0088 19.4609C73.1442 19.2448 73.3252 19.0755 73.5518 18.9531C73.7783 18.8307 74.0283 18.7396 74.3018 18.6797C74.5778 18.6172 74.8551 18.5677 75.1338 18.5313C75.4984 18.4844 75.7939 18.4492 76.0205 18.4258C76.2497 18.3997 76.4163 18.3568 76.5205 18.2969C76.6273 18.237 76.6807 18.1328 76.6807 17.9844V17.9531C76.6807 17.5677 76.5752 17.2682 76.3643 17.0547C76.1559 16.8411 75.8395 16.7344 75.415 16.7344C74.9749 16.7344 74.6299 16.8307 74.3799 17.0234C74.1299 17.2161 73.9541 17.4219 73.8525 17.6406L72.9775 17.3281C73.1338 16.9635 73.3421 16.6797 73.6025 16.4766C73.8656 16.2708 74.152 16.1276 74.4619 16.0469C74.7744 15.9635 75.0817 15.9219 75.3838 15.9219C75.5765 15.9219 75.7979 15.9453 76.0479 15.9922C76.3005 16.0365 76.5439 16.1289 76.7783 16.2695C77.0153 16.4102 77.2119 16.6224 77.3682 16.9062C77.5244 17.1901 77.6025 17.5703 77.6025 18.0469V22H76.6807V21.1875H76.6338C76.5713 21.3177 76.4671 21.457 76.3213 21.6055C76.1755 21.7539 75.9814 21.8802 75.7393 21.9844C75.4971 22.0885 75.2015 22.1406 74.8525 22.1406ZM74.9932 21.3125C75.3577 21.3125 75.665 21.2409 75.915 21.0977C76.1676 20.9544 76.3577 20.7695 76.4854 20.543C76.6156 20.3164 76.6807 20.0781 76.6807 19.8281V18.9844C76.6416 19.0312 76.5557 19.0742 76.4229 19.1133C76.2926 19.1497 76.1416 19.1823 75.9697 19.2109C75.8005 19.237 75.6351 19.2604 75.4736 19.2812C75.3148 19.2995 75.1859 19.3151 75.0869 19.3281C74.8473 19.3594 74.6234 19.4102 74.415 19.4805C74.2093 19.5482 74.0426 19.651 73.915 19.7891C73.79 19.9245 73.7275 20.1094 73.7275 20.3437C73.7275 20.6641 73.846 20.9062 74.083 21.0703C74.3226 21.2318 74.626 21.3125 74.9932 21.3125ZM81.5508 22.125C81.0508 22.125 80.6094 21.9987 80.2266 21.7461C79.8438 21.4909 79.5443 21.1315 79.3281 20.668C79.112 20.2018 79.0039 19.651 79.0039 19.0156C79.0039 18.3854 79.112 17.8385 79.3281 17.375C79.5443 16.9115 79.8451 16.5534 80.2305 16.3008C80.6159 16.0482 81.0612 15.9219 81.5664 15.9219C81.957 15.9219 82.2656 15.987 82.4922 16.1172C82.7214 16.2448 82.8958 16.3906 83.0156 16.5547C83.138 16.7161 83.2331 16.849 83.3008 16.9531H83.3789V14H84.3008V22H83.4102V21.0781H83.3008C83.2331 21.1875 83.1367 21.3255 83.0117 21.4922C82.8867 21.6562 82.7083 21.8034 82.4766 21.9336C82.2448 22.0612 81.9362 22.125 81.5508 22.125ZM81.6758 21.2969C82.0456 21.2969 82.3581 21.2005 82.6133 21.0078C82.8685 20.8125 83.0625 20.543 83.1953 20.1992C83.3281 19.8529 83.3945 19.4531 83.3945 19C83.3945 18.5521 83.3294 18.1602 83.1992 17.8242C83.069 17.4857 82.8763 17.2227 82.6211 17.0352C82.3659 16.8451 82.0508 16.75 81.6758 16.75C81.2852 16.75 80.9596 16.8503 80.6992 17.0508C80.4414 17.2487 80.2474 17.5182 80.1172 17.8594C79.9896 18.1979 79.9258 18.5781 79.9258 19C79.9258 19.4271 79.9909 19.8151 80.1211 20.1641C80.2539 20.5104 80.4492 20.7865 80.707 20.9922C80.9674 21.1953 81.2904 21.2969 81.6758 21.2969ZM88.5547 22.125C88.013 22.125 87.5378 21.9961 87.1289 21.7383C86.7227 21.4805 86.4049 21.1198 86.1758 20.6562C85.9492 20.1927 85.8359 19.651 85.8359 19.0312C85.8359 18.4062 85.9492 17.8607 86.1758 17.3945C86.4049 16.9284 86.7227 16.5664 87.1289 16.3086C87.5378 16.0508 88.013 15.9219 88.5547 15.9219C89.0964 15.9219 89.5703 16.0508 89.9766 16.3086C90.3854 16.5664 90.7031 16.9284 90.9297 17.3945C91.1589 17.8607 91.2734 18.4062 91.2734 19.0312C91.2734 19.651 91.1589 20.1927 90.9297 20.6562C90.7031 21.1198 90.3854 21.4805 89.9766 21.7383C89.5703 21.9961 89.0964 22.125 88.5547 22.125ZM88.5547 21.2969C88.9661 21.2969 89.3047 21.1914 89.5703 20.9805C89.8359 20.7695 90.0326 20.4922 90.1602 20.1484C90.2878 19.8047 90.3516 19.4323 90.3516 19.0312C90.3516 18.6302 90.2878 18.2565 90.1602 17.9102C90.0326 17.5638 89.8359 17.2839 89.5703 17.0703C89.3047 16.8568 88.9661 16.75 88.5547 16.75C88.1432 16.75 87.8047 16.8568 87.5391 17.0703C87.2734 17.2839 87.0768 17.5638 86.9492 17.9102C86.8216 18.2565 86.7578 18.6302 86.7578 19.0312C86.7578 19.4323 86.8216 19.8047 86.9492 20.1484C87.0768 20.4922 87.2734 20.7695 87.5391 20.9805C87.8047 21.1914 88.1432 21.2969 88.5547 21.2969ZM95.7744 24.25V16H96.665V16.9531H96.7744C96.8421 16.849 96.9359 16.7161 97.0557 16.5547C97.1781 16.3906 97.3525 16.2448 97.5791 16.1172C97.8083 15.987 98.1182 15.9219 98.5088 15.9219C99.014 15.9219 99.4593 16.0482 99.8447 16.3008C100.23 16.5534 100.531 16.9115 100.747 17.375C100.963 17.8385 101.071 18.3854 101.071 19.0156C101.071 19.651 100.963 20.2018 100.747 20.668C100.531 21.1315 100.231 21.4909 99.8486 21.7461C99.4658 21.9987 99.0244 22.125 98.5244 22.125C98.139 22.125 97.8304 22.0612 97.5986 21.9336C97.3669 21.8034 97.1885 21.6562 97.0635 21.4922C96.9385 21.3255 96.8421 21.1875 96.7744 21.0781H96.6963V24.25H95.7744ZM96.6807 19C96.6807 19.4531 96.7471 19.8529 96.8799 20.1992C97.0127 20.543 97.2067 20.8125 97.4619 21.0078C97.7171 21.2005 98.0296 21.2969 98.3994 21.2969C98.7848 21.2969 99.1064 21.1953 99.3643 20.9922C99.6247 20.7865 99.82 20.5104 99.9502 20.1641C100.083 19.8151 100.149 19.4271 100.149 19C100.149 18.5781 100.084 18.1979 99.9541 17.8594C99.8265 17.5182 99.6325 17.2487 99.3721 17.0508C99.1143 16.8503 98.79 16.75 98.3994 16.75C98.0244 16.75 97.7093 16.8451 97.4541 17.0352C97.1989 17.2227 97.0062 17.4857 96.876 17.8242C96.7458 18.1602 96.6807 18.5521 96.6807 19ZM104.243 22.1406C103.863 22.1406 103.518 22.069 103.208 21.9258C102.898 21.7799 102.652 21.5703 102.47 21.2969C102.287 21.0208 102.196 20.6875 102.196 20.2969C102.196 19.9531 102.264 19.6745 102.399 19.4609C102.535 19.2448 102.716 19.0755 102.942 18.9531C103.169 18.8307 103.419 18.7396 103.692 18.6797C103.968 18.6172 104.246 18.5677 104.524 18.5313C104.889 18.4844 105.185 18.4492 105.411 18.4258C105.64 18.3997 105.807 18.3568 105.911 18.2969C106.018 18.237 106.071 18.1328 106.071 17.9844V17.9531C106.071 17.5677 105.966 17.2682 105.755 17.0547C105.547 16.8411 105.23 16.7344 104.806 16.7344C104.366 16.7344 104.021 16.8307 103.771 17.0234C103.521 17.2161 103.345 17.4219 103.243 17.6406L102.368 17.3281C102.524 16.9635 102.733 16.6797 102.993 16.4766C103.256 16.2708 103.543 16.1276 103.853 16.0469C104.165 15.9635 104.472 15.9219 104.774 15.9219C104.967 15.9219 105.188 15.9453 105.438 15.9922C105.691 16.0365 105.935 16.1289 106.169 16.2695C106.406 16.4102 106.603 16.6224 106.759 16.9062C106.915 17.1901 106.993 17.5703 106.993 18.0469V22H106.071V21.1875H106.024C105.962 21.3177 105.858 21.457 105.712 21.6055C105.566 21.7539 105.372 21.8802 105.13 21.9844C104.888 22.0885 104.592 22.1406 104.243 22.1406ZM104.384 21.3125C104.748 21.3125 105.056 21.2409 105.306 21.0977C105.558 20.9544 105.748 20.7695 105.876 20.543C106.006 20.3164 106.071 20.0781 106.071 19.8281V18.9844C106.032 19.0312 105.946 19.0742 105.813 19.1133C105.683 19.1497 105.532 19.1823 105.36 19.2109C105.191 19.237 105.026 19.2604 104.864 19.2812C104.705 19.2995 104.576 19.3151 104.478 19.3281C104.238 19.3594 104.014 19.4102 103.806 19.4805C103.6 19.5482 103.433 19.651 103.306 19.7891C103.181 19.9245 103.118 20.1094 103.118 20.3437C103.118 20.6641 103.237 20.9062 103.474 21.0703C103.713 21.2318 104.017 21.3125 104.384 21.3125ZM111.098 24.375C110.652 24.375 110.27 24.3177 109.949 24.2031C109.629 24.0911 109.362 23.9427 109.148 23.7578C108.938 23.5755 108.77 23.3802 108.645 23.1719L109.379 22.6563C109.462 22.7656 109.568 22.8906 109.695 23.0312C109.823 23.1745 109.997 23.2982 110.219 23.4023C110.443 23.5091 110.736 23.5625 111.098 23.5625C111.582 23.5625 111.982 23.4453 112.297 23.2109C112.612 22.9766 112.77 22.6094 112.77 22.1094V20.8906H112.691C112.624 21 112.527 21.1354 112.402 21.2969C112.28 21.4557 112.103 21.5977 111.871 21.7227C111.642 21.8451 111.332 21.9062 110.941 21.9062C110.457 21.9062 110.022 21.7917 109.637 21.5625C109.254 21.3333 108.951 21 108.727 20.5625C108.505 20.125 108.395 19.5937 108.395 18.9687C108.395 18.3542 108.503 17.819 108.719 17.3633C108.935 16.9049 109.236 16.5508 109.621 16.3008C110.007 16.0482 110.452 15.9219 110.957 15.9219C111.348 15.9219 111.658 15.987 111.887 16.1172C112.118 16.2448 112.296 16.3906 112.418 16.5547C112.543 16.7161 112.639 16.849 112.707 16.9531H112.801V16H113.691V22.1719C113.691 22.6875 113.574 23.1068 113.34 23.4297C113.108 23.7552 112.796 23.9935 112.402 24.1445C112.012 24.2982 111.577 24.375 111.098 24.375ZM111.066 21.0781C111.436 21.0781 111.749 20.9935 112.004 20.8242C112.259 20.6549 112.453 20.4115 112.586 20.0938C112.719 19.776 112.785 19.3958 112.785 18.9531C112.785 18.5208 112.72 18.1393 112.59 17.8086C112.46 17.4779 112.267 17.2187 112.012 17.0312C111.757 16.8437 111.441 16.75 111.066 16.75C110.676 16.75 110.35 16.849 110.09 17.0469C109.832 17.2448 109.638 17.5104 109.508 17.8438C109.38 18.1771 109.316 18.5469 109.316 18.9531C109.316 19.3698 109.382 19.7383 109.512 20.0586C109.645 20.3763 109.84 20.6263 110.098 20.8086C110.358 20.9883 110.681 21.0781 111.066 21.0781ZM117.816 22.125C117.275 22.125 116.799 21.9961 116.391 21.7383C115.984 21.4805 115.667 21.1198 115.438 20.6562C115.211 20.1927 115.098 19.651 115.098 19.0312C115.098 18.4062 115.211 17.8607 115.438 17.3945C115.667 16.9284 115.984 16.5664 116.391 16.3086C116.799 16.0508 117.275 15.9219 117.816 15.9219C118.358 15.9219 118.832 16.0508 119.238 16.3086C119.647 16.5664 119.965 16.9284 120.191 17.3945C120.421 17.8607 120.535 18.4062 120.535 19.0312C120.535 19.651 120.421 20.1927 120.191 20.6562C119.965 21.1198 119.647 21.4805 119.238 21.7383C118.832 21.9961 118.358 22.125 117.816 22.125ZM117.816 21.2969C118.228 21.2969 118.566 21.1914 118.832 20.9805C119.098 20.7695 119.294 20.4922 119.422 20.1484C119.549 19.8047 119.613 19.4323 119.613 19.0312C119.613 18.6302 119.549 18.2565 119.422 17.9102C119.294 17.5638 119.098 17.2839 118.832 17.0703C118.566 16.8568 118.228 16.75 117.816 16.75C117.405 16.75 117.066 16.8568 116.801 17.0703C116.535 17.2839 116.339 17.5638 116.211 17.9102C116.083 18.2565 116.02 18.6302 116.02 19.0312C116.02 19.4323 116.083 19.8047 116.211 20.1484C116.339 20.4922 116.535 20.7695 116.801 20.9805C117.066 21.1914 117.405 21.2969 117.816 21.2969Z" fill="black"/>
</svg>
